<svg xmlns="http://www.w3.org/2000/svg" style="display: none;">
    <symbol id="heart" viewBox="0 0 50 50">
        <title>heart</title>
        <path style="fill:#D75A4A;" d="M24.85,10.126c2.018-4.783,6.628-8.125,11.99-8.125c7.223,0,12.425,6.179,13.079,13.543 c0,0,0.353,1.828-0.424,5.119c-1.058,4.482-3.545,8.464-6.898,11.503L24.85,48L7.402,32.165c-3.353-3.038-5.84-7.021-6.898-11.503 c-0.777-3.291-0.424-5.119-0.424-5.119C0.734,8.179,5.936,2,13.159,2C18.522,2,22.832,5.343,24.85,10.126z"/>
    </symbol>
    <symbol id="heart-1" viewBox="0 0 51.997 51.997">
        <title>heart-1</title>
        <path d="M51.911,16.242C51.152,7.888,45.239,1.827,37.839,1.827c-4.93,0-9.444,2.653-11.984,6.905 c-2.517-4.307-6.846-6.906-11.697-6.906c-7.399,0-13.313,6.061-14.071,14.415c-0.06,0.369-0.306,2.311,0.442,5.478 c1.078,4.568,3.568,8.723,7.199,12.013l18.115,16.439l18.426-16.438c3.631-3.291,6.121-7.445,7.199-12.014 C52.216,18.553,51.97,16.611,51.911,16.242z M49.521,21.261c-0.984,4.172-3.265,7.973-6.59,10.985L25.855,47.481L9.072,32.25 c-3.331-3.018-5.611-6.818-6.596-10.99c-0.708-2.997-0.417-4.69-0.416-4.701l0.015-0.101C2.725,9.139,7.806,3.826,14.158,3.826 c4.687,0,8.813,2.88,10.771,7.515l0.921,2.183l0.921-2.183c1.927-4.564,6.271-7.514,11.069-7.514 c6.351,0,11.433,5.313,12.096,12.727C49.938,16.57,50.229,18.264,49.521,21.261z"/>
    </symbol>
    <symbol id="comment" viewBox="0 0 60 60">
        <title>comment</title>
        <path d="M10,25.465h13c0.553,0,1-0.448,1-1s-0.447-1-1-1H10c-0.553,0-1,0.448-1,1S9.447,25.465,10,25.465z"/>
        <path d="M36,29.465H10c-0.553,0-1,0.448-1,1s0.447,1,1,1h26c0.553,0,1-0.448,1-1S36.553,29.465,36,29.465z"/>
        <path d="M36,35.465H10c-0.553,0-1,0.448-1,1s0.447,1,1,1h26c0.553,0,1-0.448,1-1S36.553,35.465,36,35.465z"/>
        <path d="M54.072,2.535L19.93,2.465c-3.27,0-5.93,2.66-5.93,5.93v5.124l-8.07,0.017c-3.27,0-5.93,2.66-5.93,5.93v21.141 c0,3.27,2.66,5.929,5.93,5.929H12v10c0,0.413,0.254,0.784,0.64,0.933c0.117,0.045,0.239,0.067,0.36,0.067 c0.276,0,0.547-0.115,0.74-0.327l9.704-10.675l16.626-0.068c3.27,0,5.93-2.66,5.93-5.929v-0.113l5.26,5.786 c0.193,0.212,0.464,0.327,0.74,0.327c0.121,0,0.243-0.022,0.36-0.067c0.386-0.149,0.64-0.52,0.64-0.933v-10h1.07 c3.27,0,5.93-2.66,5.93-5.929V8.465C60,5.196,57.341,2.536,54.072,2.535z M44,40.536c0,2.167-1.763,3.929-3.934,3.929l-17.07,0.07 c-0.28,0.001-0.548,0.12-0.736,0.327L14,53.949v-8.414c0-0.552-0.447-1-1-1H5.93c-2.167,0-3.93-1.763-3.93-3.929V19.465 c0-2.167,1.763-3.93,3.932-3.93l9.068-0.019c0,0,0,0,0,0c0.001,0,0.001,0,0.002,0l25.068-0.052c2.167,0,3.93,1.763,3.93,3.93 v18.441V40.536z M58,29.606c0,2.167-1.763,3.929-3.93,3.929H52c-0.553,0-1,0.448-1,1v8.414l-5-5.5V19.395 c0-3.27-2.66-5.93-5.932-5.93L16,13.514v-5.12c0-2.167,1.763-3.93,3.928-3.93l34.141,0.07c0.001,0,0.001,0,0.002,0 c2.167,0,3.93,1.763,3.93,3.93V29.606z"/>
    </symbol>
    <symbol id="close" viewBox="0 0 174.239 174.239">
        <title>close</title>
        <path d="M87.12,0C39.082,0,0,39.082,0,87.12s39.082,87.12,87.12,87.12s87.12-39.082,87.12-87.12S135.157,0,87.12,0z M87.12,159.305 c-39.802,0-72.185-32.383-72.185-72.185S47.318,14.935,87.12,14.935s72.185,32.383,72.185,72.185S126.921,159.305,87.12,159.305z"/>
        <path d="M120.83,53.414c-2.917-2.917-7.647-2.917-10.559,0L87.12,76.568L63.969,53.414c-2.917-2.917-7.642-2.917-10.559,0 s-2.917,7.642,0,10.559l23.151,23.153L53.409,110.28c-2.917,2.917-2.917,7.642,0,10.559c1.458,1.458,3.369,2.188,5.28,2.188 c1.911,0,3.824-0.729,5.28-2.188L87.12,97.686l23.151,23.153c1.458,1.458,3.369,2.188,5.28,2.188c1.911,0,3.821-0.729,5.28-2.188 c2.917-2.917,2.917-7.642,0-10.559L97.679,87.127l23.151-23.153C123.747,61.057,123.747,56.331,120.83,53.414z"/>
    </symbol>
    <symbol id="logo">
        <defs id="SvgjsDefs1079"/>
        <g id="SvgjsG1080" rel="mainfill" name="main_text" transform="translate(66.78000020980835,-196.91500091552734)" fill="#000000">
            <path d="M4.22 226.72C4.22 234.57 10.26 240.60 18.10 240.60C27.16 240.60 30.47 232.76 30.47 232.76L25.65 229.74C25.65 229.74 23.84 234.87 18.10 234.87C13.58 234.87 9.96 231.25 9.96 226.72L9.96 211.03C9.96 206.51 13.58 202.89 18.10 202.89C23.84 202.89 25.65 208.02 25.65 208.02L30.47 205.00C30.47 205.00 27.16 197.16 18.10 197.16C10.26 197.16 4.22 203.19 4.22 211.03ZM42.54 240L55.22 240L55.22 220.09C55.22 214.35 51.29 210.43 45.56 210.43L37.72 210.43L37.72 215.86L45.56 215.86C47.97 215.86 49.78 217.67 49.78 220.09L49.78 221.90L42.54 221.90C37.11 221.90 33.49 225.52 33.49 230.95C33.49 236.38 37.11 240 42.54 240ZM42.54 227.33L49.78 227.33L49.78 234.57L42.54 234.57C40.43 234.57 38.92 233.06 38.92 230.95C38.92 228.84 40.43 227.33 42.54 227.33ZM69.70 210.43L60.04 210.43L60.04 215.86L64.27 215.86L64.27 240L69.70 240L69.70 218.28C69.70 218.28 72.11 215.26 75.43 215.26C77.84 215.26 79.96 217.37 79.96 220.09L79.96 240L85.39 240L85.39 218.28C85.39 218.28 87.80 215.26 91.12 215.26C93.53 215.26 95.65 217.37 95.65 220.09L95.65 240L101.08 240L101.08 220.09C101.08 214.05 96.85 209.83 92.33 209.83C87.20 209.83 84.18 214.66 84.18 214.66C84.18 214.66 81.77 209.83 76.64 209.83C72.11 209.83 69.76 213.27 69.70 213.45ZM116.16 240L128.84 240L128.84 220.09C128.84 214.35 124.91 210.43 119.18 210.43L111.34 210.43L111.34 215.86L119.18 215.86C121.59 215.86 123.41 217.67 123.41 220.09L123.41 221.90L116.16 221.90C110.73 221.90 107.11 225.52 107.11 230.95C107.11 236.38 110.73 240 116.16 240ZM116.16 227.33L123.41 227.33L123.41 234.57L116.16 234.57C114.05 234.57 112.54 233.06 112.54 230.95C112.54 228.84 114.05 227.33 116.16 227.33ZM134.27 243.32C134.27 248.75 138.19 252.67 143.92 252.67L147.24 252.67C152.97 252.67 156.90 248.75 156.90 243.32C156.90 237.89 152.97 233.97 147.24 233.97L143.02 233.97C141.51 233.97 140.60 233.06 140.60 231.55C140.60 230.04 141.51 229.14 143.02 229.14L146.03 229.14C151.77 229.14 155.69 225.22 155.69 219.78C155.69 217.67 154.54 215.86 154.54 215.86L158.71 215.86L158.71 210.43L144.53 210.43C138.79 210.43 134.87 214.35 134.87 219.78C134.87 224.31 138.19 226.72 138.19 226.72C138.19 226.72 135.78 228.53 135.78 231.55C135.78 234.57 138.19 236.38 138.19 236.38C138.19 236.38 134.27 238.79 134.27 243.32ZM144.53 223.71C142.11 223.71 140.30 221.90 140.30 219.78C140.30 217.67 142.11 215.86 144.53 215.86L146.03 215.86C148.45 215.86 150.26 217.67 150.26 219.78C150.26 221.90 148.45 223.71 146.03 223.71ZM147.24 239.40C149.66 239.40 151.47 241.21 151.47 243.32C151.47 245.43 149.66 247.24 147.24 247.24L143.92 247.24C141.51 247.24 139.70 245.43 139.70 243.32C139.70 241.21 141.51 239.40 143.92 239.40ZM174.40 240L174.40 234.57L168.97 234.57L168.97 218.88C168.97 218.88 171.38 215.86 175.00 215.86L178.62 215.86L178.62 209.83L176.21 209.83C171.38 209.83 168.97 213.45 168.97 213.45L168.97 210.43L159.31 210.43L159.31 215.86L163.53 215.86L163.53 234.57L158.10 234.57L158.10 240ZM200.34 234.57L194.31 234.57C191.59 234.57 189.48 232.46 189.48 229.74L189.48 210.43L179.83 210.43L179.83 215.86L184.05 215.86L184.05 229.74C184.05 235.78 188.28 240 194.31 240L205.78 240L205.78 210.43L200.34 210.43Z" fill="#000000" style="fill: rgb(0, 0, 0);"/>
        </g>
        <g id="SvgjsG1081" rel="mainfill" name="symbol" transform="translate(-7,-7) scale(0.7)" fill="#222222"><path d="M50,10H10v40c0,22.09,17.91,40,40,40h40V50C90,27.91,72.09,10,50,10z M83.333,83.333H50  c-18.379,0-33.333-14.954-33.333-33.333V16.667H50c18.379,0,33.333,14.955,33.333,33.333V83.333z" fill="#222222" style="fill: rgb(34, 34, 34);"/>
            <path d="M50,23.333c-14.727,0-26.667,11.94-26.667,26.667S35.273,76.667,50,76.667S76.667,64.727,76.667,50S64.727,23.333,50,23.333  z M50,70c-11.048,0-20-8.955-20-20s8.952-20,20-20c11.045,0,20,8.955,20,20S61.045,70,50,70z" fill="#222222" style="fill: rgb(34, 34, 34);"/>
            <path d="M50,36.667c-7.363,0-13.333,5.97-13.333,13.333S42.637,63.333,50,63.333S63.333,57.363,63.333,50S57.363,36.667,50,36.667z   M50,56.667c-3.682,0-6.667-2.985-6.667-6.667s2.985-6.667,6.667-6.667s6.667,2.985,6.667,6.667S53.682,56.667,50,56.667z" fill="#222222" style="fill: rgb(34, 34, 34);"/>
        </g>
    </symbol>
</svg>